<svg xmlns="http://www.w3.org/2000/svg" viewBox="0 0 1000 700" font-family="-apple-system,'Segoe UI',system-ui,sans-serif">
  <defs>
    <marker id="arrInk" viewBox="0 0 10 10" refX="9" refY="5" markerWidth="7.5" markerHeight="7.5" orient="auto-start-reverse">
      <path d="M0,0 L10,5 L0,10 z" fill="#243447"/>
    </marker>
  </defs>

  <rect width="1000" height="700" fill="#faf8f3"/>
  <text x="36" y="44" font-family="Georgia,serif" font-size="21" fill="#243447">Inside the engine — from document to cited answer</text>
  <rect x="36" y="56" width="64" height="3" fill="#c0653f"/>

  <!-- ════════ LANE 1 · INGEST ════════ -->
  <rect x="30" y="80" width="940" height="246" rx="12" fill="#ffffff" stroke="#e6e0d4"/>
  <circle cx="58" cy="112" r="13" fill="#6a8f6b"/>
  <text x="58" y="117" font-size="13" font-weight="700" fill="#ffffff" text-anchor="middle">1</text>
  <text x="80" y="110" font-size="13.5" font-weight="700" fill="#243447">When you drop a document into sources/</text>
  <text x="80" y="128" font-size="11.5" fill="#8a8377">fully automatic · ~1–3 minutes per paper</text>

  <!-- stage 1: layout parsing -->
  <rect x="50" y="152" width="164" height="152" rx="10" fill="#eef3ea" stroke="#b5c9af"/>
  <text x="64" y="176" font-size="13" font-weight="700" fill="#243447">Layout parsing</text>
  <text x="64" y="194" font-size="10.5" font-family="ui-monospace,Menlo,monospace" fill="#4c6b4d">Docling</text>
  <text x="64" y="216" font-size="11" fill="#4a5568">chapters &amp; sections,</text>
  <text x="64" y="232" font-size="11" fill="#4a5568">tables kept intact,</text>
  <text x="64" y="248" font-size="11" fill="#4a5568">figures, page numbers</text>
  <line x1="216" y1="228" x2="236" y2="228" stroke="#243447" stroke-width="1.8" marker-end="url(#arrInk)"/>

  <!-- stage 2: chunking -->
  <rect x="238" y="152" width="164" height="152" rx="10" fill="#eef3ea" stroke="#b5c9af"/>
  <text x="252" y="176" font-size="13" font-weight="700" fill="#243447">Smart chunking</text>
  <text x="252" y="194" font-size="10.5" font-family="ui-monospace,Menlo,monospace" fill="#4c6b4d">≈2000 chars</text>
  <text x="252" y="216" font-size="11" fill="#4a5568">splits along paragraphs;</text>
  <text x="252" y="232" font-size="11" fill="#4a5568">long tables split with</text>
  <text x="252" y="248" font-size="11" fill="#4a5568">header repeated per part</text>
  <line x1="404" y1="228" x2="424" y2="228" stroke="#243447" stroke-width="1.8" marker-end="url(#arrInk)"/>

  <!-- stage 3: contextual retrieval -->
  <rect x="426" y="152" width="164" height="152" rx="10" fill="#fdf3e7" stroke="#e2c79f"/>
  <rect x="448" y="140" width="120" height="20" rx="10" fill="#c0653f"/>
  <text x="508" y="154" font-size="10.5" font-weight="700" fill="#ffffff" text-anchor="middle">the quality secret</text>
  <text x="440" y="180" font-size="13" font-weight="700" fill="#243447">Context enrichment</text>
  <text x="440" y="198" font-size="10.5" font-family="ui-monospace,Menlo,monospace" fill="#8a5a23">Contextual Retrieval</text>
  <text x="440" y="220" font-size="11" fill="#4a5568">AI writes 1–2 sentences</text>
  <text x="440" y="236" font-size="11" fill="#4a5568">locating each chunk in the</text>
  <text x="440" y="252" font-size="11" fill="#4a5568">document's argument</text>
  <line x1="592" y1="228" x2="612" y2="228" stroke="#243447" stroke-width="1.8" marker-end="url(#arrInk)"/>

  <!-- stage 4: embeddings -->
  <rect x="614" y="152" width="164" height="152" rx="10" fill="#fdf3e7" stroke="#e2c79f"/>
  <text x="628" y="176" font-size="13" font-weight="700" fill="#243447">Two fingerprints</text>
  <text x="628" y="194" font-size="10.5" font-family="ui-monospace,Menlo,monospace" fill="#8a5a23">dense + BM25</text>
  <text x="628" y="216" font-size="11" fill="#4a5568">meaning vector (semantic)</text>
  <text x="628" y="232" font-size="11" fill="#4a5568">+ keyword vector with</text>
  <text x="628" y="248" font-size="11" fill="#4a5568">language-aware stemming</text>
  <line x1="780" y1="228" x2="800" y2="228" stroke="#243447" stroke-width="1.8" marker-end="url(#arrInk)"/>

  <!-- stage 5: index -->
  <rect x="802" y="152" width="164" height="152" rx="10" fill="#eaf0f7" stroke="#b9cde4"/>
  <text x="816" y="176" font-size="13" font-weight="700" fill="#243447">Hybrid index</text>
  <text x="816" y="194" font-size="10.5" font-family="ui-monospace,Menlo,monospace" fill="#2c4a6e">Qdrant</text>
  <text x="816" y="216" font-size="11" fill="#4a5568">stored with page, chapter,</text>
  <text x="816" y="232" font-size="11" fill="#4a5568">type &amp; source — ready</text>
  <text x="816" y="248" font-size="11" fill="#4a5568">for instant search</text>

  <!-- ════════ LANE 2 · QUERY ════════ -->
  <rect x="30" y="354" width="940" height="246" rx="12" fill="#ffffff" stroke="#e6e0d4"/>
  <circle cx="58" cy="386" r="13" fill="#4a6fa5"/>
  <text x="58" y="391" font-size="13" font-weight="700" fill="#ffffff" text-anchor="middle">2</text>
  <text x="80" y="384" font-size="13.5" font-weight="700" fill="#243447">When you ask Claude a question</text>
  <text x="80" y="402" font-size="11.5" fill="#8a8377">hybrid search · ~2 seconds</text>

  <!-- stage 1: question -->
  <rect x="50" y="426" width="164" height="152" rx="10" fill="#f4f1ea" stroke="#d8d2c4"/>
  <text x="64" y="450" font-size="13" font-weight="700" fill="#243447">Your question</text>
  <text x="64" y="468" font-size="10.5" font-family="ui-monospace,Menlo,monospace" fill="#6b6457">via Claude (MCP)</text>
  <text x="64" y="490" font-size="11" fill="#4a5568">embedded the same two</text>
  <text x="64" y="506" font-size="11" fill="#4a5568">ways: meaning +</text>
  <text x="64" y="522" font-size="11" fill="#4a5568">keywords</text>
  <line x1="216" y1="502" x2="236" y2="502" stroke="#243447" stroke-width="1.8" marker-end="url(#arrInk)"/>

  <!-- stage 2: prefetch -->
  <rect x="238" y="426" width="164" height="152" rx="10" fill="#eaf0f7" stroke="#b9cde4"/>
  <text x="252" y="450" font-size="13" font-weight="700" fill="#243447">Wide net</text>
  <text x="252" y="468" font-size="10.5" font-family="ui-monospace,Menlo,monospace" fill="#2c4a6e">prefetch 150 + 150</text>
  <text x="252" y="490" font-size="11" fill="#4a5568">best semantic and best</text>
  <text x="252" y="506" font-size="11" fill="#4a5568">keyword matches,</text>
  <text x="252" y="522" font-size="11" fill="#4a5568">fetched in parallel</text>
  <line x1="404" y1="502" x2="424" y2="502" stroke="#243447" stroke-width="1.8" marker-end="url(#arrInk)"/>

  <!-- stage 3: fusion -->
  <rect x="426" y="426" width="164" height="152" rx="10" fill="#eaf0f7" stroke="#b9cde4"/>
  <text x="440" y="450" font-size="13" font-weight="700" fill="#243447">Merge</text>
  <text x="440" y="468" font-size="10.5" font-family="ui-monospace,Menlo,monospace" fill="#2c4a6e">RRF fusion</text>
  <text x="440" y="490" font-size="11" fill="#4a5568">both rankings fused</text>
  <text x="440" y="506" font-size="11" fill="#4a5568">into one — top 80</text>
  <text x="440" y="522" font-size="11" fill="#4a5568">candidates remain</text>
  <line x1="592" y1="502" x2="612" y2="502" stroke="#243447" stroke-width="1.8" marker-end="url(#arrInk)"/>

  <!-- stage 4: reranker -->
  <rect x="614" y="426" width="164" height="152" rx="10" fill="#efe9f6" stroke="#c9b8e0"/>
  <rect x="636" y="414" width="120" height="20" rx="10" fill="#7a5ba6"/>
  <text x="696" y="428" font-size="10.5" font-weight="700" fill="#ffffff" text-anchor="middle">the precision step</text>
  <text x="628" y="454" font-size="13" font-weight="700" fill="#243447">Re-ranking</text>
  <text x="628" y="472" font-size="10.5" font-family="ui-monospace,Menlo,monospace" fill="#59437d">BGE cross-encoder</text>
  <text x="628" y="494" font-size="11" fill="#4a5568">reads question + each</text>
  <text x="628" y="510" font-size="11" fill="#4a5568">candidate together and</text>
  <text x="628" y="526" font-size="11" fill="#4a5568">re-orders by true fit</text>
  <line x1="780" y1="502" x2="800" y2="502" stroke="#243447" stroke-width="1.8" marker-end="url(#arrInk)"/>

  <!-- stage 5: answer -->
  <rect x="802" y="426" width="164" height="152" rx="10" fill="#eef3ea" stroke="#b5c9af"/>
  <text x="816" y="450" font-size="13" font-weight="700" fill="#243447">Cited answer</text>
  <text x="816" y="468" font-size="10.5" font-family="ui-monospace,Menlo,monospace" fill="#4c6b4d">top 15 · max 3/source</text>
  <text x="816" y="490" font-size="11" fill="#4a5568">diverse hits with page-</text>
  <text x="816" y="506" font-size="11" fill="#4a5568">exact PDF links — Claude</text>
  <text x="816" y="522" font-size="11" fill="#4a5568">writes the cited answer</text>

  <!-- legend + footnote -->
  <rect x="36" y="622" width="11" height="11" rx="2" fill="#eef3ea" stroke="#b5c9af"/>
  <text x="53" y="632" font-size="11" fill="#4a5568">document understanding</text>
  <rect x="216" y="622" width="11" height="11" rx="2" fill="#fdf3e7" stroke="#e2c79f"/>
  <text x="233" y="632" font-size="11" fill="#4a5568">AI enrichment</text>
  <rect x="340" y="622" width="11" height="11" rx="2" fill="#eaf0f7" stroke="#b9cde4"/>
  <text x="357" y="632" font-size="11" fill="#4a5568">search machinery</text>
  <rect x="480" y="622" width="11" height="11" rx="2" fill="#efe9f6" stroke="#c9b8e0"/>
  <text x="497" y="632" font-size="11" fill="#4a5568">ranking precision</text>
  <text x="36" y="664" font-size="11" font-style="italic" fill="#8a8377">Every default in this pipeline (chunk size, the 150/80 candidate limits, no hard score cut-off) was tuned against a retrieval gold standard.</text>
</svg>
